# xmcd
#
# Track frame offsets:
# 150
# 18915
# 37182
# 53895
# 70577
# 86252
# 120860
# 161942
# 180932
# 204140
# 225147
# 246315
# 269307
# 282687
# 304325
# 325657
# 346132
#
# Disc length: 4799 seconds
#
#
# Revision: 0
# Processed by: cddbd v1.5.1PL2 Copyright (c) Steve Scherf et al.
# Submitted via: FreeRIP 2.944 
#
DISCID=dd12bd11
DTITLE=Blues Traveller - travelogue: Blues Trabeller Classics
DYEAR=2002
DGENRE=Blues
TTITLE0=But Anyway
TTITLE1=Gina
TTITLE2=Mulling It Over
TTITLE3=100 Years
TTITLE4=Optimistic Thought
TTITLE5=Sweet Pain
TTITLE6=Mountain Cry
TTITLE7=Love and Greed
TTITLE8=Conquer Me
TTITLE9=Run-around
TTITLE10=Regarding Steven
TTITLE11=The Mountains Win Again
TTITLE12=Crash Burn
TTITLE13=Hook
TTITLE14=Carolina Blues
TTITLE15=Canadian Rose
TTITLE16=Just for Me
EXTD=
EXTT0=
EXTT1=
EXTT2=
EXTT3=
EXTT4=
EXTT5=
EXTT6=
EXTT7=
EXTT8=
EXTT9=
EXTT10=
EXTT11=
EXTT12=
EXTT13=
EXTT14=
EXTT15=
EXTT16=
PLAYORDER=
